<svg width="75" height="50" viewBox="0 0 75 50" fill="none" xmlns="http://www.w3.org/2000/svg">
<path d="M25 25C25 11.1929 36.1929 0 50 0V0V25H25V25Z" fill="#404040"/>
<path d="M50 0H75V0C75 13.8071 63.8071 25 50 25V25V0Z" fill="#404040"/>
<path d="M50 25H62.5C69.4036 25 75 30.5964 75 37.5V50H62.5C55.5964 50 50 44.4036 50 37.5V25Z" fill="#404040"/>
<path d="M25 25V25C38.8071 25 50 36.1929 50 50V50H25V25Z" fill="#404040"/>
<path d="M0 37.5C0 30.5964 5.59644 25 12.5 25H25V37.5C25 44.4036 19.4036 50 12.5 50H0V37.5Z" fill="#404040"/>
</svg>
